# xmcd CD database file
# Copyright (C) 1995-1998 Ti Kan
#
# Track frame offsets:
#	150
#	13542
#	22817
#	37295
#	55902
#	71122
#	85535
#	95172
#	108620
#	120632
#	133315
#	146275
#	161730
#	173990
#	189660
#
# Disc length: 2646 seconds
#
# Revision: 1
# Processed by: cddbd v1.4b42PL1 Copyright (c) Steve Scherf et al.
# Submitted via: CDex 1.30Release
#
DISCID=d50a540f
DTITLE=MacLains - Neggu Noggenstans
DYEAR=2001
DGENRE=Blues
TTITLE0=Kurompen
TTITLE1=Rave Ud
TTITLE2=Såmmårtis blues
TTITLE3=15 år plit
TTITLE4=Abels Olle
TTITLE5=Pauline
TTITLE6=Pipeline
TTITLE7=Tönnis
TTITLE8=Trångmål
TTITLE9=Ner på samhällt
TTITLE10=Jä älskar dej
TTITLE11=Alban
TTITLE12=Kommer såmmår kommer gäster
TTITLE13=Kärringe där hemma
TTITLE14=Lonesome town
EXTD=YEAR: 2001 ID3G:   0
EXTT0=
EXTT1=
EXTT2=
EXTT3=
EXTT4=
EXTT5=
EXTT6=
EXTT7=
EXTT8=
EXTT9=
EXTT10=
EXTT11=
EXTT12=
EXTT13=
EXTT14=
PLAYORDER=
